<svg width="510" height="128" viewBox="0 0 510 128" fill="none" xmlns="http://www.w3.org/2000/svg">
<rect width="128" height="128" rx="30" fill="black"/>
<path fill-rule="evenodd" clip-rule="evenodd" d="M85.6689 64.6971L62.3853 58.0607L79.5026 75.1721C80.1853 74.8455 80.9499 74.6626 81.7573 74.6626C84.6457 74.6626 86.9871 77.0033 86.9871 79.8906C86.9871 82.7779 84.6457 85.1186 81.7573 85.1186C78.869 85.1186 76.5275 82.7779 76.5275 79.8906C76.5275 79.0835 76.7105 78.3191 77.0372 77.6366L59.9405 60.5458L66.3644 82.9466L66.3911 83.0763C67.862 90.2112 74.1871 95.5745 81.7573 95.5745C83.4815 95.5745 85.134 95.2977 86.6769 94.789L88.7161 94.1165L96.6733 102.071L104.069 94.6775L96.0664 86.6774L96.7104 84.6556C97.1877 83.1573 97.4467 81.5575 97.4467 79.8906C97.4467 72.5972 92.4634 66.4584 85.7095 64.7076L85.6689 64.6971ZM109 94.6775L96.6733 107L87.7691 98.0989C85.8782 98.7224 83.8572 99.0598 81.7573 99.0598C72.4998 99.0598 64.7744 92.5019 62.9764 83.7797L53.8652 52.008L86.5846 61.3339C94.8384 63.4735 100.933 70.9705 100.933 79.8906C100.933 81.9206 100.618 83.8769 100.033 85.7132L109 94.6775Z" fill="#A9FF68"/>
<path fill-rule="evenodd" clip-rule="evenodd" d="M66.068 33.9413C68.9563 33.9413 71.2978 31.6006 71.2978 28.7133C71.2978 25.826 68.9563 23.4853 66.068 23.4853C63.1797 23.4853 60.8382 25.826 60.8382 28.7133C60.8382 31.6006 63.1797 33.9413 66.068 33.9413ZM66.068 37.4266C70.8819 37.4266 74.7843 33.5255 74.7843 28.7133C74.7843 23.9011 70.8819 20 66.068 20C61.8511 20 58.3337 22.9935 57.5261 26.9706H55.6084C39.2413 26.9706 25.973 40.2343 25.973 56.5959V58.5128C21.9945 59.3201 19 62.8364 19 67.0518C19 71.864 22.9024 75.7651 27.7163 75.7651C32.5302 75.7651 36.4326 71.864 36.4326 67.0518C36.4326 62.8364 33.4381 59.3201 29.4596 58.5128V56.5959C29.4596 42.1592 41.1668 30.456 55.6084 30.456H57.5261C58.3337 34.4331 61.8511 37.4266 66.068 37.4266ZM27.7163 72.2798C30.6046 72.2798 32.9461 69.9391 32.9461 67.0518C32.9461 64.1645 30.6046 61.8238 27.7163 61.8238C24.828 61.8238 22.4865 64.1645 22.4865 67.0518C22.4865 69.9391 24.828 72.2798 27.7163 72.2798Z" fill="#A9FF68"/>
<path d="M168.192 47.78C169.771 52.4733 171.563 57.636 173.568 63.268C175.573 68.8573 177.408 73.7 179.072 77.796C180.309 73.828 182.016 69.0707 184.192 63.524C186.368 57.9347 188.395 52.9 190.272 48.42C190.827 47.0973 191.765 46.436 193.088 46.436C194.325 46.436 195.264 46.692 195.904 47.204C196.544 47.6733 196.864 48.5053 196.864 49.7C196.864 50.1693 196.8 50.5747 196.672 50.916C196.544 51.2573 196.352 51.7053 196.096 52.26C194.773 54.8627 193.451 57.8707 192.128 61.284C190.805 64.6547 189.184 68.9427 187.264 74.148C187.349 73.9347 186.752 75.5347 185.472 78.948L183.36 84.452C183.104 85.1347 182.677 85.668 182.08 86.052C181.525 86.3933 180.885 86.564 180.16 86.564C179.435 86.564 178.624 86.3933 177.728 86.052C176.875 85.668 176.256 85.284 175.872 84.9C174.421 82.1267 172.565 78.116 170.304 72.868C168.085 67.62 166.165 62.7773 164.544 58.34L163.584 55.716C162.944 53.924 162.475 52.5587 162.176 51.62C161.877 50.6387 161.728 49.8493 161.728 49.252C161.728 48.3987 162.197 47.716 163.136 47.204C164.117 46.692 165.056 46.436 165.952 46.436C166.421 46.436 166.869 46.5427 167.296 46.756C167.723 46.9693 168.021 47.3107 168.192 47.78ZM197.943 72.932C197.943 71.3107 198.241 69.6893 198.839 68.068C199.436 66.404 200.225 64.8893 201.207 63.524C202.188 62.1587 203.745 61.0493 205.879 60.196C208.012 59.3 209.911 58.852 211.575 58.852C213.281 58.852 215.009 59.0867 216.759 59.556C218.551 60.0253 219.788 60.7507 220.471 61.732C222.049 63.9507 222.839 66.1267 222.839 68.26C222.839 69.412 222.583 70.3933 222.071 71.204C221.601 72.0147 220.919 72.8893 220.023 73.828C219.297 74.596 218.145 75.108 216.567 75.364C215.031 75.62 213.495 75.748 211.958 75.748C210.977 75.748 209.783 75.6627 208.375 75.492C206.967 75.2787 205.601 75.0227 204.279 74.724C204.364 75.5773 204.577 76.4093 204.919 77.22C205.26 78.0307 205.665 78.6493 206.135 79.076C206.988 79.8867 207.863 80.3987 208.759 80.612C209.697 80.8253 210.892 80.932 212.343 80.932C213.879 80.932 215.308 80.676 216.631 80.164C217.697 79.78 218.572 79.588 219.255 79.588C220.065 79.588 220.684 79.844 221.111 80.356C221.537 80.8253 221.751 81.444 221.751 82.212C221.751 83.2787 221.132 84.1533 219.895 84.836C218.657 85.5187 217.228 86.0307 215.607 86.372C214.028 86.6707 212.748 86.82 211.767 86.82C209.761 86.82 207.82 86.4573 205.943 85.732C204.065 85.0067 202.508 83.9827 201.271 82.66C200.247 81.4653 199.436 80.036 198.839 78.372C198.241 76.6653 197.943 74.852 197.943 72.932ZM211.895 64.292C210.956 64.292 210.017 64.484 209.079 64.868C208.14 65.2093 207.372 65.7 206.775 66.34C206.007 67.1507 205.473 67.812 205.175 68.324C204.919 68.7933 204.748 69.4547 204.663 70.308C205.729 70.6493 207.948 70.82 211.319 70.82C213.153 70.82 214.561 70.5427 215.543 69.988C216.567 69.4333 217.079 68.708 217.079 67.812C217.079 66.916 216.524 66.1053 215.415 65.38C214.305 64.6547 213.132 64.292 211.895 64.292ZM251.675 65.124C251.675 67.0013 250.715 67.94 248.795 67.94C248.155 67.94 247.621 67.7907 247.195 67.492C246.768 67.1933 246.299 66.7453 245.787 66.148C244.507 64.74 243.397 64.036 242.458 64.036C241.221 64.036 240.005 64.3987 238.811 65.124C237.659 65.8493 236.72 66.8733 235.995 68.196C235.269 69.5187 234.907 70.9907 234.907 72.612C234.907 74.404 235.248 75.8973 235.931 77.092C236.656 78.2867 237.765 79.3107 239.259 80.164C239.813 80.4627 240.453 80.6973 241.179 80.868C241.947 81.0387 242.608 81.124 243.163 81.124C244.4 81.124 245.957 80.6333 247.835 79.652C248.517 79.3107 249.093 79.0547 249.563 78.884C250.032 78.7133 250.523 78.628 251.035 78.628C251.504 78.628 252.037 78.8413 252.635 79.268C253.232 79.6947 253.531 80.228 253.531 80.868C253.531 82.148 252.933 83.236 251.739 84.132C250.544 84.9853 249.072 85.6467 247.323 86.116C245.616 86.5427 243.973 86.756 242.395 86.756C239.877 86.756 237.531 86.18 235.355 85.028C233.221 83.876 231.515 82.2973 230.235 80.292C228.955 78.244 228.315 75.94 228.315 73.38C228.315 70.6493 228.933 68.1533 230.171 65.892C231.408 63.6307 233.072 61.86 235.163 60.58C237.253 59.3 239.536 58.66 242.01 58.66C243.419 58.66 244.869 58.916 246.363 59.428C247.856 59.94 249.115 60.6867 250.139 61.668C251.163 62.6493 251.675 63.8013 251.675 65.124ZM258.955 64.228C258.357 64.1427 257.867 63.908 257.483 63.524C257.141 63.0973 256.971 62.5853 256.971 61.988C256.971 61.22 257.269 60.58 257.867 60.068C257.995 59.94 258.208 59.8333 258.507 59.748C258.805 59.62 259.04 59.5133 259.211 59.428C260.149 59.1293 260.747 58.8947 261.003 58.724C261.984 58.1267 262.645 57.1453 262.987 55.78C263.328 54.1587 263.541 53.0493 263.627 52.452C263.712 51.5133 264.011 50.8093 264.523 50.34C265.077 49.828 265.76 49.572 266.571 49.572C267.637 49.572 268.384 49.8493 268.811 50.404C269.237 50.9587 269.451 51.9827 269.451 53.476C269.451 55.4387 268.981 57.2947 268.043 59.044C268.64 59.044 269.621 59.0013 270.987 58.916C273.035 58.8307 274.464 58.788 275.275 58.788C276 58.788 276.619 58.98 277.131 59.364C277.685 59.7053 277.963 60.2173 277.963 60.9C277.963 62.5213 277.216 63.4813 275.723 63.78C274.357 64.164 271.883 64.3987 268.299 64.484C268 68.6653 267.851 71.972 267.851 74.404C267.851 75.8973 267.915 76.964 268.043 77.604C268.299 78.9267 268.725 79.908 269.323 80.548C269.963 81.1453 270.901 81.444 272.139 81.444C272.736 81.444 273.632 81.2947 274.827 80.996C275.552 80.7827 276.128 80.676 276.555 80.676C277.109 80.676 277.536 80.868 277.835 81.252C278.133 81.636 278.283 82.148 278.283 82.788C278.283 83.94 277.536 84.9 276.043 85.668C274.549 86.3933 272.779 86.756 270.731 86.756C269.451 86.756 268.192 86.4573 266.955 85.86C265.717 85.22 264.672 84.452 263.819 83.556C263.648 83.4707 263.392 83.0013 263.051 82.148C262.752 81.2947 262.453 80.356 262.155 79.332C262.027 78.82 261.963 77.5827 261.963 75.62C261.963 73.7427 262.091 70.5 262.347 65.892L262.411 64.484C262.112 64.484 261.557 64.4627 260.747 64.42C259.936 64.3347 259.339 64.2707 258.955 64.228ZM308.108 65.956C308.449 66.5533 308.727 67.428 308.94 68.58C309.153 69.6893 309.26 70.692 309.26 71.588C309.26 72.74 309.132 74.02 308.876 75.428C308.62 76.836 308.385 77.924 308.172 78.692C305.228 84.068 300.876 86.756 295.116 86.756C292.983 86.756 290.807 86.052 288.588 84.644C286.369 83.236 284.833 81.6147 283.98 79.78C282.828 76.1533 282.252 73.828 282.252 72.804C282.252 71.0973 282.615 69.284 283.34 67.364C284.108 65.444 285.068 63.78 286.22 62.372C286.988 61.3907 288.311 60.5587 290.188 59.876C292.065 59.1507 293.772 58.788 295.308 58.788C298.295 58.788 300.812 59.364 302.86 60.516C304.951 61.6253 306.7 63.4387 308.108 65.956ZM302.54 76.26C302.753 75.8333 302.86 74.404 302.86 71.972C302.86 70.7347 302.625 69.5187 302.156 68.324C301.729 67.1293 301.089 66.1053 300.236 65.252C300.151 65.1667 299.916 65.0387 299.532 64.868C299.148 64.6547 298.615 64.4627 297.932 64.292C297.292 64.0787 296.545 63.972 295.692 63.972C293.303 63.972 291.553 64.932 290.444 66.852C289.335 68.772 288.78 70.948 288.78 73.38C288.78 73.764 288.908 74.5533 289.164 75.748C289.42 76.9427 289.612 77.7107 289.74 78.052C290.081 78.6493 290.764 79.3533 291.788 80.164C292.855 80.932 294.007 81.316 295.244 81.316C297.164 81.316 298.679 80.868 299.788 79.972C300.94 79.0333 301.857 77.796 302.54 76.26ZM324.288 83.94C324.203 84.6653 323.904 85.3053 323.392 85.86C322.88 86.4147 322.219 86.692 321.408 86.692C320.128 86.692 319.189 86.4573 318.592 85.988C317.995 85.476 317.696 84.5587 317.696 83.236C317.696 81.444 317.803 79.4813 318.016 77.348C318.187 74.8733 318.272 72.9747 318.272 71.652C318.272 70.9693 318.229 70.116 318.144 69.092C318.059 68.1533 318.016 67.4493 318.016 66.98C317.888 66.2547 317.589 65.6787 317.12 65.252C316.693 64.8253 316.011 64.4627 315.072 64.164C314.688 63.9933 314.368 63.716 314.112 63.332C313.856 62.9053 313.728 62.5213 313.728 62.18C313.728 61.1987 314.112 60.452 314.88 59.94C315.648 59.428 316.587 59.172 317.696 59.172C318.933 59.172 320 59.5987 320.896 60.452C321.792 61.3053 322.475 62.372 322.944 63.652C323.925 62.244 325.12 61.1133 326.528 60.26C327.979 59.4067 329.387 58.98 330.752 58.98C332.501 58.98 333.973 59.2787 335.168 59.876C336.405 60.4307 337.024 61.412 337.024 62.82C337.024 63.6307 336.661 64.484 335.936 65.38C335.253 66.2333 334.549 66.66 333.824 66.66C333.269 66.66 332.608 66.404 331.84 65.892C331.541 65.6787 331.2 65.508 330.816 65.38C330.475 65.2093 330.112 65.124 329.728 65.124C329.045 65.124 328.405 65.2307 327.808 65.444C327.211 65.6573 326.805 65.9133 326.592 66.212C325.909 67.2787 325.397 68.2387 325.056 69.092C324.757 69.9453 324.608 70.8627 324.608 71.844C324.608 72.5693 324.587 73.1453 324.544 73.572L324.48 77.22L324.544 79.652C324.544 81.444 324.459 82.8733 324.288 83.94ZM343.966 45.412C345.459 45.54 346.739 45.9453 347.806 46.628C348.915 47.268 349.47 48.2493 349.47 49.572C349.47 50.5533 349.022 51.3427 348.126 51.94C347.23 52.4947 346.12 52.772 344.798 52.772C343.56 52.772 342.707 52.452 342.238 51.812C341.768 51.172 341.534 50.5107 341.534 49.828C341.534 48.5907 341.683 47.5453 341.982 46.692C342.28 45.796 342.942 45.3693 343.966 45.412ZM342.686 71.844V69.988C342.686 67.8547 342.579 65.9133 342.366 64.164C342.195 62.372 342.088 61.2627 342.046 60.836C342.088 60.3667 342.408 59.9187 343.006 59.492C343.603 59.0653 344.136 58.852 344.606 58.852C345.416 58.852 346.227 59.0227 347.038 59.364C347.891 59.6627 348.424 60.0467 348.638 60.516C348.851 62.0947 348.958 63.3107 348.958 64.164C348.958 66.0413 349.043 69.1133 349.214 73.38L349.278 75.876L349.406 78.308C349.448 78.9907 349.491 79.8013 349.534 80.74C349.576 81.6787 349.598 82.7453 349.598 83.94C349.598 84.7507 349.192 85.4333 348.382 85.988C347.614 86.5427 346.803 86.82 345.95 86.82C344.712 86.82 343.838 86.5427 343.326 85.988C342.856 85.4333 342.622 84.5587 342.622 83.364L342.686 71.844ZM379.224 64.612C378.328 66.148 377.112 67.7267 375.576 69.348C374.04 70.9693 372.077 72.8893 369.688 75.108C367.426 77.2413 366.168 78.4573 365.912 78.756L363.736 80.74C364.589 80.9107 366.189 80.996 368.536 80.996C369.474 80.996 370.84 80.8253 372.632 80.484C374.338 80.1427 375.597 79.972 376.408 79.972C377.09 79.972 377.858 80.0787 378.712 80.292C379.608 80.5053 380.44 80.8253 381.208 81.252C381.592 81.4227 381.912 81.764 382.168 82.276C382.424 82.7453 382.552 83.1933 382.552 83.62C382.552 84.1747 382.36 84.7933 381.976 85.476C381.592 86.1587 381.144 86.5 380.632 86.5C380.162 86.5 379.544 86.4147 378.776 86.244C377.624 86.0307 376.813 85.924 376.344 85.924C374.85 85.924 372.866 86.0307 370.392 86.244C366.978 86.5 364.461 86.628 362.84 86.628C360.792 86.628 359.17 86.372 357.976 85.86C356.824 85.348 356.248 84.388 356.248 82.98C356.248 81.9133 356.781 80.6973 357.848 79.332C358.914 77.924 360.216 76.452 361.752 74.916L362.648 73.956C363.33 73.2733 364.482 72.2493 366.104 70.884C367.725 69.476 368.962 68.3667 369.816 67.556C370.669 66.7027 371.373 65.8067 371.928 64.868L361.688 64.932C360.024 64.932 358.786 64.74 357.976 64.356C357.208 63.972 356.824 63.2467 356.824 62.18C356.824 61.5827 357.037 61.028 357.464 60.516C357.89 59.9613 358.445 59.62 359.128 59.492C360.664 59.2787 363.8 59.172 368.536 59.172C373.272 59.172 376.536 59.4067 378.328 59.876C378.797 60.0467 379.16 60.3667 379.416 60.836C379.714 61.2627 379.864 61.7107 379.864 62.18C379.864 62.948 379.65 63.7587 379.224 64.612ZM386.255 72.932C386.255 71.3107 386.554 69.6893 387.151 68.068C387.748 66.404 388.538 64.8893 389.519 63.524C390.5 62.1587 392.058 61.0493 394.191 60.196C396.324 59.3 398.223 58.852 399.887 58.852C401.594 58.852 403.322 59.0867 405.071 59.556C406.863 60.0253 408.1 60.7507 408.783 61.732C410.362 63.9507 411.151 66.1267 411.151 68.26C411.151 69.412 410.895 70.3933 410.383 71.204C409.914 72.0147 409.231 72.8893 408.335 73.828C407.61 74.596 406.458 75.108 404.879 75.364C403.343 75.62 401.807 75.748 400.271 75.748C399.29 75.748 398.095 75.6627 396.687 75.492C395.279 75.2787 393.914 75.0227 392.591 74.724C392.676 75.5773 392.89 76.4093 393.231 77.22C393.572 78.0307 393.978 78.6493 394.447 79.076C395.3 79.8867 396.175 80.3987 397.071 80.612C398.01 80.8253 399.204 80.932 400.655 80.932C402.191 80.932 403.62 80.676 404.943 80.164C406.01 79.78 406.884 79.588 407.567 79.588C408.378 79.588 408.996 79.844 409.423 80.356C409.85 80.8253 410.063 81.444 410.063 82.212C410.063 83.2787 409.444 84.1533 408.207 84.836C406.97 85.5187 405.54 86.0307 403.919 86.372C402.34 86.6707 401.06 86.82 400.079 86.82C398.074 86.82 396.132 86.4573 394.255 85.732C392.378 85.0067 390.82 83.9827 389.583 82.66C388.559 81.4653 387.748 80.036 387.151 78.372C386.554 76.6653 386.255 74.852 386.255 72.932ZM400.207 64.292C399.268 64.292 398.33 64.484 397.391 64.868C396.452 65.2093 395.684 65.7 395.087 66.34C394.319 67.1507 393.786 67.812 393.487 68.324C393.231 68.7933 393.06 69.4547 392.975 70.308C394.042 70.6493 396.26 70.82 399.631 70.82C401.466 70.82 402.874 70.5427 403.855 69.988C404.879 69.4333 405.391 68.708 405.391 67.812C405.391 66.916 404.836 66.1053 403.727 65.38C402.618 64.6547 401.444 64.292 400.207 64.292ZM417.523 64.036C416.414 63.268 415.859 62.4573 415.859 61.604C415.859 61.0067 416.115 60.452 416.627 59.94C417.139 59.428 417.907 59.172 418.931 59.172C420.126 59.172 421.192 59.492 422.131 60.132C423.112 60.7293 423.795 61.604 424.179 62.756C425.16 61.604 426.27 60.6867 427.507 60.004C428.787 59.3213 430.088 58.98 431.411 58.98C432.99 58.98 434.419 59.4067 435.699 60.26C436.979 61.1133 437.619 62.2653 437.619 63.716C437.619 64.5267 437.256 65.3587 436.531 66.212C435.848 67.0653 435.144 67.492 434.419 67.492C434.035 67.492 433.694 67.4067 433.395 67.236C433.139 67.0227 432.819 66.724 432.435 66.34C432.008 65.9133 431.646 65.6147 431.347 65.444C431.048 65.2307 430.707 65.124 430.323 65.124C429.64 65.124 429 65.2307 428.403 65.444C427.806 65.6573 427.4 65.9133 427.187 66.212C426.504 67.2787 425.992 68.2387 425.651 69.092C425.352 69.9453 425.203 70.8627 425.203 71.844C425.203 72.5693 425.182 73.1453 425.139 73.572L425.075 77.22C425.075 77.7747 425.096 78.3933 425.139 79.076C425.182 79.7587 425.224 80.2707 425.267 80.612C425.395 81.764 425.459 82.8733 425.459 83.94C425.459 84.6653 425.182 85.3053 424.627 85.86C424.072 86.4147 423.39 86.692 422.579 86.692C421.299 86.692 420.36 86.4573 419.763 85.988C419.166 85.476 418.867 84.5587 418.867 83.236L418.803 79.14C418.76 78.3293 418.739 77.1773 418.739 75.684L418.803 71.46C418.888 69.412 418.931 67.748 418.931 66.468C418.931 65.9987 418.824 65.572 418.611 65.188C418.44 64.804 418.078 64.42 417.523 64.036ZM486.167 85.54C485.612 84.8147 485.143 84.0253 484.759 83.172C484.375 82.276 483.97 81.2093 483.543 79.972C483.458 79.7587 483.202 79.1187 482.775 78.052C482.391 76.9853 481.943 76.068 481.431 75.3C478.743 75.684 476.546 75.876 474.839 75.876C473.9 75.876 472.855 75.8547 471.703 75.812C470.594 75.7267 469.762 75.684 469.207 75.684C467.074 75.5133 465.367 75.428 464.087 75.428C463.575 76.1107 463.127 76.836 462.743 77.604C462.402 78.372 461.954 79.524 461.399 81.06C460.631 83.2787 459.97 84.8573 459.415 85.796C459.031 86.436 458.284 86.756 457.175 86.756C456.236 86.756 455.362 86.564 454.551 86.18C453.783 85.7533 453.399 85.1773 453.399 84.452C453.74 82.8307 454.274 81.124 454.999 79.332C455.767 77.4973 456.855 75.0653 458.263 72.036L460.823 65.764C462.231 62.18 463.511 59.108 464.663 56.548C465.858 53.988 467.415 50.9587 469.335 47.46C469.591 46.948 470.018 46.5213 470.615 46.18C471.212 45.796 471.874 45.604 472.599 45.604C473.41 45.604 473.986 45.668 474.327 45.796C474.711 45.8813 475.01 46.052 475.223 46.308C475.436 46.5213 475.756 46.9907 476.183 47.716C477.634 49.9773 478.871 52.3027 479.895 54.692C480.962 57.0813 482.306 60.388 483.927 64.612L485.271 68.004C486.466 71.076 487.49 73.6573 488.343 75.748C489.239 77.796 490.22 79.6733 491.287 81.38C491.97 82.4893 492.311 83.2573 492.311 83.684C492.311 84.708 491.991 85.4973 491.351 86.052C490.754 86.564 489.964 86.82 488.983 86.82C487.746 86.82 486.807 86.3933 486.167 85.54ZM479.575 70.052C478.892 68.6013 477.911 66.084 476.631 62.5C475.308 58.66 473.986 55.6093 472.663 53.348C471.852 55.396 470.658 58.0413 469.079 61.284C468.012 63.2893 466.796 66.1907 465.431 69.988C468.162 70.3293 471.106 70.5 474.263 70.5C476.524 70.5 478.295 70.3507 479.575 70.052ZM501.633 86.692C500.353 86.692 499.457 86.308 498.945 85.54C498.475 84.772 498.241 83.684 498.241 82.276L498.305 73.956L498.241 72.676C498.027 68.6227 497.921 65.2733 497.921 62.628L498.177 55.012L498.241 51.172C498.241 49.892 498.283 48.9107 498.369 48.228C498.454 47.5453 498.731 46.9907 499.201 46.564C499.67 46.1373 500.417 45.924 501.441 45.924C502.721 45.924 503.638 46.244 504.193 46.884C504.747 47.4813 505.025 48.5267 505.025 50.02L504.961 51.364C504.79 54.7773 504.705 57.3587 504.705 59.108C504.705 61.028 504.747 63.2893 504.833 65.892C504.918 68.452 504.982 70.2653 505.025 71.332C505.238 75.8973 505.345 79.8227 505.345 83.108C505.345 84.388 505.067 85.3053 504.513 85.86C504.001 86.4147 503.041 86.692 501.633 86.692Z" fill="white"/>
</svg>
