<svg width="128" height="128" viewBox="0 0 128 128" fill="none" xmlns="http://www.w3.org/2000/svg">
<rect width="128" height="128" rx="30" fill="url(#paint0_radial_1159_387)"/>
<path fill-rule="evenodd" clip-rule="evenodd" d="M85.6689 64.6971L62.3853 58.0607L79.5026 75.1721C80.1853 74.8455 80.9499 74.6626 81.7573 74.6626C84.6457 74.6626 86.9871 77.0033 86.9871 79.8906C86.9871 82.7779 84.6457 85.1186 81.7573 85.1186C78.869 85.1186 76.5275 82.7779 76.5275 79.8906C76.5275 79.0835 76.7105 78.3191 77.0372 77.6366L59.9405 60.5458L66.3644 82.9466L66.3911 83.0763C67.862 90.2112 74.187 95.5745 81.7573 95.5745C83.4815 95.5745 85.134 95.2977 86.6769 94.789L88.7161 94.1165L96.6733 102.071L104.069 94.6775L96.0664 86.6774L96.7104 84.6556C97.1877 83.1573 97.4467 81.5575 97.4467 79.8906C97.4467 72.5972 92.4634 66.4584 85.7095 64.7076L85.6689 64.6971ZM109 94.6775L96.6733 107L87.7691 98.0989C85.8782 98.7224 83.8572 99.0598 81.7573 99.0598C72.4998 99.0598 64.7744 92.5019 62.9764 83.7797L53.8652 52.008L86.5846 61.3339C94.8384 63.4735 100.933 70.9705 100.933 79.8906C100.933 81.9206 100.618 83.8769 100.033 85.7132L109 94.6775Z" fill="black"/>
<path fill-rule="evenodd" clip-rule="evenodd" d="M66.068 33.9413C68.9563 33.9413 71.2978 31.6006 71.2978 28.7133C71.2978 25.826 68.9563 23.4853 66.068 23.4853C63.1797 23.4853 60.8382 25.826 60.8382 28.7133C60.8382 31.6006 63.1797 33.9413 66.068 33.9413ZM66.068 37.4266C70.8819 37.4266 74.7843 33.5255 74.7843 28.7133C74.7843 23.9011 70.8819 20 66.068 20C61.8511 20 58.3337 22.9935 57.5261 26.9706H55.6084C39.2413 26.9706 25.973 40.2343 25.973 56.5959V58.5128C21.9945 59.3201 19 62.8364 19 67.0518C19 71.864 22.9024 75.7651 27.7163 75.7651C32.5302 75.7651 36.4326 71.864 36.4326 67.0518C36.4326 62.8364 33.4381 59.3201 29.4596 58.5128V56.5959C29.4596 42.1592 41.1668 30.456 55.6084 30.456H57.5261C58.3337 34.4331 61.8511 37.4266 66.068 37.4266ZM27.7163 72.2798C30.6046 72.2798 32.9461 69.9391 32.9461 67.0518C32.9461 64.1645 30.6046 61.8238 27.7163 61.8238C24.828 61.8238 22.4865 64.1645 22.4865 67.0518C22.4865 69.9391 24.828 72.2798 27.7163 72.2798Z" fill="black"/>
<defs>
<radialGradient id="paint0_radial_1159_387" cx="0" cy="0" r="1" gradientUnits="userSpaceOnUse" gradientTransform="translate(64 64) rotate(90) scale(64)">
<stop stop-color="#C6F8FF"/>
<stop offset="1" stop-color="#A9FF68"/>
</radialGradient>
</defs>
</svg>
